
<svg xmlns="http://www.w3.org/2000/svg" viewBox="0 0 16 200" fill="none" stroke="currentColor" stroke-width="1.5" aria-hidden="true">
  <ellipse cx="8" cy="6" rx="5" ry="3"></ellipse>
  <ellipse cx="8" cy="14" rx="3" ry="5"></ellipse>
  <ellipse cx="8" cy="24" rx="5" ry="3"></ellipse>
  <ellipse cx="8" cy="32" rx="3" ry="5"></ellipse>
  <ellipse cx="8" cy="42" rx="5" ry="3"></ellipse>
  <ellipse cx="8" cy="50" rx="3" ry="5"></ellipse>
  <ellipse cx="8" cy="60" rx="5" ry="3"></ellipse>
  <ellipse cx="8" cy="68" rx="3" ry="5"></ellipse>
  <ellipse cx="8" cy="78" rx="5" ry="3"></ellipse>
  <ellipse cx="8" cy="86" rx="3" ry="5"></ellipse>
  <ellipse cx="8" cy="96" rx="5" ry="3"></ellipse>
  <ellipse cx="8" cy="104" rx="3" ry="5"></ellipse>
  <ellipse cx="8" cy="114" rx="5" ry="3"></ellipse>
  <ellipse cx="8" cy="122" rx="3" ry="5"></ellipse>
  <ellipse cx="8" cy="132" rx="5" ry="3"></ellipse>
  <ellipse cx="8" cy="140" rx="3" ry="5"></ellipse>
  <ellipse cx="8" cy="150" rx="5" ry="3"></ellipse>
  <ellipse cx="8" cy="158" rx="3" ry="5"></ellipse>
  <ellipse cx="8" cy="168" rx="5" ry="3"></ellipse>
  <ellipse cx="8" cy="176" rx="3" ry="5"></ellipse>
  <ellipse cx="8" cy="186" rx="5" ry="3"></ellipse>
  <ellipse cx="8" cy="194" rx="3" ry="5"></ellipse>
</svg>